<svg width="577" height="411" viewBox="0 0 577 411" fill="none" xmlns="http://www.w3.org/2000/svg">
<path d="M88.0836 10.6232C6.58359 42.1232 28.5507 81.6929 12.5836 137.623C-2.46759 190.345 9.58359 242.123 35.5836 276.123C49.9906 294.963 95.0837 236.623 114.084 305.623C129.284 360.823 184.417 383.29 215.084 368.623C247.084 349.623 294.084 339.823 298.084 368.623C303.084 404.623 335.584 381.623 374.084 394.623C415.798 408.708 492.084 384.623 522.084 368.623C544.027 356.92 569.084 329.123 569.084 290.623C569.584 247.123 543.584 246.623 539.584 220.123C533.216 177.937 502.584 182.623 458.084 169.623C400.457 152.789 375.084 185.623 340.084 132.623C312.084 90.2233 337.084 72.1232 262.084 26.6232C210.162 -4.8759 131.074 -5.99266 88.0836 10.6232Z" fill="#FFDADA"/>
<path d="M369.584 10.1232C376.584 -0.37677 405.684 6.62316 404.084 28.6232C402.484 50.6232 351.084 42.1232 369.584 10.1232Z" fill="#FFDADA"/>
<path d="M36.0836 337.623C32.0836 339.79 26.4836 344.423 36.0836 347.623C45.6836 350.823 42.5836 336.123 36.0836 337.623Z" fill="#FFDADA"/>
<path d="M101.084 364.123C122.284 362.523 104.584 337.623 93.0836 337.123C79.4836 337.123 78.5836 343.623 82.0836 349.123C78.0836 354.623 79.8836 365.723 101.084 364.123Z" fill="#FFDADA"/>
<path d="M454.584 125.623C456.584 117.623 439.646 116.361 444.159 127.482C448.672 138.604 450.823 130.257 454.584 125.623Z" fill="#FFDADA"/>
<path d="M352.824 117.458C342.823 103.457 362.415 86.6232 375.915 86.6232C392.761 86.6232 408.726 138.875 392.325 139.542C371.825 140.375 365.324 134.958 352.824 117.458Z" fill="#FFDADA"/>
</svg>
