<svg width="1204" height="485" viewBox="0 0 1204 485" fill="none" xmlns="http://www.w3.org/2000/svg">
<g clip-path="url(#clip0_1_2)">
<path d="M-13.0433 11.7984C-117.254 46.783 -89.1654 90.73 -109.582 152.847C-128.827 211.402 -113.418 268.907 -80.1727 306.669C-61.7511 327.592 -4.09254 262.799 20.2019 339.432C39.6375 400.738 110.134 425.69 149.346 409.401C190.263 388.299 250.36 377.415 255.475 409.401C261.868 449.383 303.424 423.839 352.653 438.277C405.991 453.921 503.534 427.171 541.894 409.401C569.952 396.403 601.991 365.532 601.991 322.772C602.63 274.461 569.385 273.905 564.27 244.474C556.128 197.62 598.794 152.438 541.894 138C468.209 119.303 358.753 196.863 314 138C278.198 90.9096 305.342 80.1017 209.443 29.5683C143.053 -5.41529 41.9265 -6.65559 -13.0433 11.7984Z" fill="#FFDADA"/>
<path d="M376 69C384.951 57.3385 388.046 64.5663 386 89C383.954 113.434 352.345 104.54 376 69Z" fill="#FFDADA"/>
<path d="M390.956 112.872C391.485 104.065 387.011 102.676 388.203 114.919C389.395 127.162 389.963 117.973 390.956 112.872Z" fill="#FFDADA"/>
<path d="M775.927 107.872C776.808 99.0655 769.351 97.676 771.338 109.919C773.325 122.162 774.272 112.973 775.927 107.872Z" fill="#FFDADA"/>
<path d="M228.824 117.458C218.823 103.457 238.415 86.6232 251.915 86.6232C268.761 86.6232 284.726 138.875 268.325 139.542C247.825 140.375 241.324 134.958 228.824 117.458Z" fill="#FFDADA"/>
<path d="M340.283 120.325C335.6 104.74 344.775 86 351.096 86C358.985 86 366.462 144.167 358.781 144.909C349.181 145.837 346.137 139.807 340.283 120.325Z" fill="#FFDADA"/>
<path d="M803.335 125.217C802.113 119.67 804.506 113 806.156 113C808.214 113 810.164 133.703 808.16 133.968C805.656 134.298 804.862 132.152 803.335 125.217Z" fill="#FFDADA"/>
<path d="M795.396 118.641C792.277 124.26 790.942 112.52 791.973 104.622C793.26 94.7663 803.269 86.2918 802.128 95.8978C800.703 107.905 799.295 111.618 795.396 118.641Z" fill="#FFDADA"/>
<path d="M443 187.87C485.219 144.974 585.52 63.399 648.976 80.2613C728.296 101.339 724.457 129.073 784.587 142.386C844.717 155.698 862.628 93.5737 917.64 117.98C961.649 137.505 1004.21 159.396 1019.99 167.901C1031.93 176.406 1057.09 194.97 1062.21 201.182C1068.6 208.948 1075 241.119 1075 251.104C1075 261.088 1053.25 301.025 1046.85 311.01C1041.74 318.997 987.578 365.368 961.138 387.556C950.476 390.514 920.71 397.096 886.935 399.759C853.16 402.421 768.808 382.379 730.854 372.025C733.839 367.957 734.692 359.378 714.223 357.603C688.636 355.384 727.016 356.494 663.049 372.025C599.081 387.556 570.935 372.025 558.142 372.025H526.158L443 201.182V187.87Z" fill="#FFDADA"/>
</g>
<defs>
<clipPath id="clip0_1_2">
<rect width="1204" height="485" fill="white"/>
</clipPath>
</defs>
</svg>
